name processed_emg_signals												
nRows=132												
nColumns=7												
 												
endheader												
time	RGLTMED	RRF	RADDLONG	RST	RTA	RGM						
0	0.00242571	0.020996026	0.01337762	0.023569397	0.01490348	0.106133116						
0.001	0.002884514	0.019514408	0.012330912	0.024495541	0.00903292	0.117301591						
0.002	0.003343832	0.018039989	0.011279941	0.025420709	0.003192129	0.128428372						
0.003	0.003803375	0.016573603	0.010225081	0.02634411	0.002614889	0.13950481						
0.004	0.004262852	0.015116076	0.009166705	0.027264951	0.008384164	0.150522277						
0.005	0.004721975	0.013668221	0.008105182	0.028182434	0.014111761	0.16147218						
0.006	0.005180459	0.012230838	0.00704088	0.02909576	0.019793793	0.172345975						
0.007	0.005638021	0.010804712	0.005974161	0.030004129	0.02542642	0.183135177						
0.008	0.006094384	0.009390613	0.004905385	0.030906743	0.031005857	0.193831377						
0.009	0.006549274	0.007989296	0.003834907	0.031802805	0.03652838	0.20442625						
0.01	0.007002422	0.006601497	0.002763077	0.032691522	0.041990331	0.214911573						
0.011	0.007453564	0.005227936	0.001690242	0.033572105	0.047388123	0.225279234						
0.012	0.007902442	0.003869312	0.000616742	0.034443772	0.052718242	0.235521245						
0.013	0.008348803	0.002526306	0.000457089	0.035305746	0.057977257	0.245629752						
0.014	0.008792403	0.001199579	0.001530921	0.036157261	0.063161818	0.25559705						
0.015	0.009233004	0.00011023	0.002604432	0.036997558	0.068268666	0.26541559						
0.016	0.009670373	0.001402505	0.003677305	0.037825891	0.073294634	0.275077991						
0.017	0.010104289	0.002676649	0.004749229	0.038641525	0.078236649	0.28457705						
0.018	0.010534534	0.003932091	0.0058199	0.039443739	0.083091738	0.293905754						
0.019	0.010960902	0.005168281	0.006889023	0.040231825	0.087857033	0.303057283						
0.02	0.011383195	0.006384695	0.007956305	0.041005091	0.092529768	0.312025027						
0.021	0.011801221	0.007580831	0.009021463	0.041762863	0.097107288	0.320802586						
0.022	0.0122148	0.008756214	0.010084221	0.042504483	0.101587047	0.329383783						
0.023	0.012623759	0.009910393	0.011144309	0.043229313	0.105966611	0.33776267						
0.024	0.013027937	0.01104294	0.012201463	0.043936735	0.110243663	0.345933535						
0.025	0.013427178	0.012153456	0.013255428	0.044626151	0.114416	0.353890906						
0.026	0.01382134	0.013241566	0.014305954	0.045296984	0.118481538	0.361629559						
0.027	0.014210288	0.01430692	0.015352799	0.045948683	0.122438312	0.369144522						
0.028	0.014593897	0.015349195	0.016395726	0.046580717	0.126284478	0.37643108						
0.029	0.014972052	0.016368093	0.017434506	0.047192583	0.130018312	0.38348478						
0.03	0.015344648	0.017363343	0.018468916	0.047783799	0.133638211	0.390301432						
0.031	0.015711589	0.018334699	0.019498738	0.048353913	0.137142695	0.396877114						
0.032	0.016072789	0.019281942	0.020523762	0.048902497	0.140530406	0.403208174						
0.033	0.016428172	0.020204877	0.021543783	0.049429153	0.143800108	0.409291232						
0.034	0.016777671	0.021103337	0.022558601	0.049933508	0.146950687	0.41512318						
0.035	0.017121228	0.021977177	0.023568022	0.05041522	0.149981151	0.420701186						
0.036	0.017458796	0.02282628	0.024571858	0.050873975	0.15289063	0.426022693						
0.037	0.017790336	0.023650554	0.025569924	0.051309489	0.155678372	0.431085417						
0.038	0.018115819	0.024449929	0.026562042	0.051721506	0.158343747	0.435887351						
0.039	0.018435224	0.025224362	0.027548038	0.052109803	0.160886244	0.44042676						
0.04	0.018748539	0.025973834	0.028527741	0.052474185	0.163305468	0.444702181						
0.041	0.019055761	0.026698346	0.029500984	0.052814491	0.16560114	0.448712424						
0.042	0.019356895	0.027397927	0.030467607	0.053130587	0.167773097	0.452456567						
0.043	0.019651956	0.028072626	0.031427448	0.053422373	0.169821289	0.455933955						
0.044	0.019940964	0.028722515	0.032380353	0.053689779	0.171745777	0.459144197						
0.045	0.020223949	0.029347687	0.033326169	0.053932767	0.173546733	0.462087163						
0.046	0.020500948	0.029948257	0.034264744	0.054151329	0.175224437	0.464762981						
0.047	0.020772005	0.030524361	0.035195932	0.054345489	0.176779272	0.467172036						
0.048	0.021037171	0.031076154	0.036119587	0.054515301	0.178211729	0.469314962						
0.049	0.021296505	0.031603812	0.037035563	0.054660853	0.179522397	0.471192639						
0.05	0.021550069	0.03210753	0.03794372	0.054782258	0.180711969	0.472806193						
0.051	0.021797935	0.03258752	0.038843915	0.054879665	0.181781229	0.474156986						
0.052	0.02204018	0.033044013	0.039736008	0.054953249	0.182731062	0.475246615						
0.053	0.022276885	0.033477258	0.040619861	0.055003217	0.18356244	0.476076905						
0.054	0.022508138	0.033887518	0.041495334	0.055029804	0.184276429	0.476649908						
0.055	0.022734031	0.034275075	0.042362289	0.055033273	0.184874178	0.476967891						
0.056	0.02295466	0.034640223	0.043220588	0.055013918	0.185356925	0.477033337						
0.057	0.023170128	0.034983275	0.044070093	0.054972057	0.185725985	0.476848936						
0.058	0.023380539	0.035304553	0.044910664	0.054908038	0.185982756	0.476417582						
0.059	0.023586003	0.035604397	0.045742162	0.054822233	0.18612871	0.475742363						
0.06	0.023786632	0.035883156	0.046564449	0.054715042	0.186165394	0.47482656						
0.061	0.023982541	0.036141194	0.047377384	0.054586886	0.186094424	0.473673639						
0.062	0.02417385	0.036378883	0.048180825	0.054438215	0.185917486	0.472287242						
0.063	0.024360678	0.03659661	0.048974631	0.0542695	0.185636329	0.470671187						
0.064	0.02454315	0.036794768	0.049758657	0.054081232	0.185252765	0.468829455						
0.065	0.024721389	0.036973761	0.050532758	0.053873928	0.184768666	0.466766188						
0.066	0.024895522	0.037134003	0.05129679	0.053648123	0.184185961	0.464485681						
0.067	0.025065677	0.037275915	0.052050605	0.053404372	0.183506632	0.461992376						
0.068	0.025231982	0.037399924	0.052794053	0.05314325	0.182732712	0.459290855						
0.069	0.025394565	0.037506466	0.053526984	0.052865347	0.181866283	0.456385832						
0.07	0.025553558	0.037595982	0.054249247	0.052571273	0.180909473	0.453282148						
0.071	0.025709088	0.03766892	0.054960688	0.05226165	0.179864452	0.449984766						
0.072	0.025861285	0.037725731	0.055661151	0.05193712	0.178733432	0.446498758						
0.073	0.026010278	0.037766871	0.056350482	0.051598332	0.177518661	0.442829306						
0.074	0.026156194	0.037792801	0.05702852	0.051245953	0.176222424	0.438981689						
0.075	0.02629916	0.037803984	0.057695107	0.050880658	0.174847037	0.43496128						
0.076	0.026439301	0.037800885	0.058350082	0.050503133	0.173394848	0.430773538						
0.077	0.026576741	0.037783973	0.058993283	0.050114076	0.171868233	0.426423999						
0.078	0.026711601	0.037753717	0.059624545	0.049714188	0.170269591	0.421918275						
0.079	0.026844001	0.037710588	0.060243704	0.049304181	0.168601349	0.417262041						
0.08	0.026974059	0.037655055	0.060850593	0.048884771	0.16686595	0.412461031						
0.081	0.027101888	0.037587589	0.061445045	0.04845668	0.165065859	0.407521033						
0.082	0.027227601	0.037508661	0.062026892	0.048020633	0.163203556	0.402447881						
0.083	0.027351306	0.03741874	0.062595964	0.047577358	0.161281539	0.397247448						
0.084	0.027473108	0.037318292	0.063152093	0.047127582	0.159302314	0.391925641						
0.085	0.02759311	0.037207782	0.063695106	0.046672037	0.157268401	0.386488392						
0.086	0.027711408	0.037087675	0.064224833	0.04621145	0.155182327	0.380941658						
0.087	0.027828099	0.036958428	0.064741102	0.04574655	0.153046627	0.375291405						
0.088	0.027943272	0.0368205	0.065243742	0.045278061	0.15086384	0.369543613						
0.089	0.028057012	0.036674342	0.065732581	0.044806703	0.14863651	0.363704263						
0.09	0.028169402	0.036520402	0.066207446	0.044333193	0.14636718	0.35777933						
0.091	0.028280519	0.036359126	0.066668166	0.043858241	0.144058395	0.351774786						
0.092	0.028390436	0.036190952	0.06711457	0.04338255	0.141712698	0.345696583						
0.093	0.028499219	0.036016315	0.067546488	0.042906818	0.139332627	0.339550657						
0.094	0.028606932	0.035835642	0.067963749	0.042431732	0.136920718	0.333342915						
0.095	0.028713632	0.035649356	0.068366185	0.041957969	0.134479497	0.327079236						
0.096	0.028819373	0.035457874	0.068753628	0.041486198	0.132011484	0.32076546						
0.097	0.028924202	0.035261606	0.069125912	0.041017075	0.129519192	0.314407389						
0.098	0.02902816	0.035060955	0.069482873	0.040551246	0.127005118	0.308010775						
0.099	0.029131286	0.034856318	0.069824349	0.040089343	0.124471752	0.30158132						
0.1	0.02923361	0.034648085	0.07015018	0.039631984	0.121921568	0.295124669						
0.101	0.029335158	0.034436638	0.070460207	0.039179775	0.119357027	0.288646405						
0.102	0.029435952	0.034222351	0.070754277	0.038733303	0.116780573	0.282152046						
0.103	0.029536007	0.034005592	0.071032238	0.038293144	0.114194633	0.275647039						
0.104	0.029635333	0.03378672	0.071293941	0.037859855	0.111601618	0.269136754						
0.105	0.029733933	0.033566087	0.071539242	0.037433976	0.109003917	0.262626484						
0.106	0.029831808	0.033344035	0.071768002	0.037016033	0.106403901	0.256121435						
0.107	0.029928951	0.033120901	0.071980084	0.036606529	0.10380392	0.249626727						
0.108	0.030025351	0.032897012	0.072175358	0.036205951	0.101206301	0.243147386						
0.109	0.030120991	0.032672685	0.072353697	0.035814769	0.098613348	0.236688343						
0.11	0.03021585	0.032448231	0.072514982	0.03543343	0.096027341	0.230254428						
0.111	0.0303099	0.032223953	0.0726591	0.035062363	0.093450538	0.223850368						
0.112	0.030403111	0.032000144	0.072785941	0.034701977	0.090885168	0.217480782						
0.113	0.030495446	0.031777088	0.072895406	0.034352659	0.088333436	0.211150179						
0.114	0.030586864	0.031555063	0.072987401	0.034014777	0.085797522	0.204862953						
0.115	0.03067732	0.031334337	0.07306184	0.033688676	0.083279575	0.198623383						
0.116	0.030766764	0.031115168	0.073118646	0.033374681	0.08078172	0.192435627						
0.117	0.030855143	0.030897809	0.073157749	0.033073094	0.078306051	0.186303721						
0.118	0.0309424	0.030682501	0.073179089	0.032784195	0.075854635	0.180231577						
0.119	0.031028471	0.03046948	0.073182616	0.032508244	0.073429508	0.174222978						
0.12	0.031113294	0.03025897	0.073168288	0.032245477	0.071032679	0.168281581						
0.121	0.0311968	0.03005119	0.073136074	0.031996108	0.068666126	0.162410909						
0.122	0.031278917	0.029846349	0.073085956	0.031760328	0.066331796	0.156614352						
0.123	0.031359572	0.029644648	0.073017923	0.031538307	0.064031606	0.150895169						
0.124	0.031438688	0.02944628	0.072931978	0.031330191	0.061767445	0.145256479						
0.125	0.031516187	0.029251429	0.072828136	0.031136105	0.059541167	0.139701267						
0.126	0.031591987	0.029060272	0.072706423	0.03095615	0.057354597	0.13423238						
0.127	0.031666005	0.028872979	0.072566879	0.030790407	0.055209531	0.128852525						
0.128	0.031738158	0.028689709	0.072409556	0.030638932	0.053107729	0.12356427						
0.129	0.03180836	0.028510617	0.072234519	0.030501762	0.051050925	0.118370045						
0.13	0.031876524	0.028335847	0.072041848	0.030378908	0.049040817	0.113272138						
0.131	0.031942563	0.028165537	0.071831635	0.030270364	0.047079076	0.108272698						
